<?xml version="1.0" standalone="no"?>
<!DOCTYPE svg PUBLIC "-//W3C//DTD SVG 20010904//EN"
 "http://www.w3.org/TR/2001/REC-SVG-20010904/DTD/svg10.dtd">
<svg version="1.0" xmlns="http://www.w3.org/2000/svg"
 width="1824.000000pt" height="1824.000000pt" viewBox="0 0 1824.000000 1824.000000"
 preserveAspectRatio="xMidYMid meet">
<metadata>
Created by potrace 1.14, written by Peter Selinger 2001-2017
</metadata>
<g transform="translate(0.000000,1824.000000) scale(0.100000,-0.100000)"
fill="#000000" stroke="none">
<path d="M4325 15948 c-404 -139 -598 -221 -825 -351 -561 -321 -911 -715
-1164 -1311 -103 -240 -194 -570 -231 -836 -3 -25 -8 -56 -10 -70 -3 -22 -12
-108 -21 -195 -13 -133 -17 -409 -20 -1250 -2 -533 -5 -988 -8 -1010 -5 -47
-14 -114 -22 -170 -22 -163 -84 -372 -156 -525 -67 -144 -145 -262 -242 -368
-41 -45 -158 -140 -226 -183 -204 -131 -504 -212 -825 -224 -38 -2 -77 -3 -85
-4 -13 -1 -15 -46 -15 -356 0 -195 2 -355 5 -355 3 -1 52 -3 109 -5 133 -5
195 -12 311 -35 30 -6 66 -14 80 -16 67 -13 245 -80 327 -123 269 -142 485
-394 602 -706 13 -33 27 -69 31 -80 5 -11 11 -31 15 -45 3 -14 15 -60 25 -102
11 -42 27 -112 34 -155 14 -74 19 -108 32 -228 4 -27 7 -480 9 -1005 2 -857 7
-1162 20 -1255 3 -16 9 -70 15 -120 64 -542 234 -1024 506 -1435 284 -428 716
-763 1305 -1011 165 -69 462 -170 472 -160 17 16 198 534 190 541 -4 4 -41 20
-82 34 -293 105 -572 264 -780 445 -75 65 -213 205 -238 241 -10 14 -26 34
-36 45 -77 81 -228 345 -311 544 -24 55 -101 280 -111 321 -31 128 -66 292
-75 355 -7 44 -14 87 -15 96 -2 9 -6 52 -10 95 -4 43 -9 90 -12 104 -3 14 -7
459 -8 990 -2 872 -7 1141 -20 1234 -2 17 -9 65 -15 106 -25 186 -57 322 -119
500 -178 518 -505 894 -982 1128 l-116 57 136 67 c434 213 718 515 914 973 60
140 125 362 152 520 5 25 26 172 30 205 13 98 18 419 20 1260 1 531 5 983 8
1005 4 22 11 83 17 135 51 474 200 919 425 1270 247 385 636 681 1127 856 40
14 77 30 81 34 11 10 -164 540 -178 539 -5 0 -23 -5 -40 -11z"/>
<path d="M13867 15953 c-8 -13 -166 -496 -169 -516 -2 -14 8 -23 37 -34 169
-63 266 -105 364 -155 540 -277 885 -697 1096 -1333 25 -76 78 -276 89 -340
16 -88 26 -143 30 -170 9 -59 16 -111 22 -160 4 -27 8 -63 11 -80 4 -29 9
-587 17 -1685 2 -305 6 -564 9 -575 2 -11 8 -51 12 -90 5 -56 37 -233 60 -339
13 -59 73 -236 112 -331 82 -201 189 -380 313 -524 102 -117 155 -167 325
-299 68 -52 294 -176 390 -212 29 -11 28 -12 -100 -76 -320 -161 -566 -377
-750 -659 -48 -74 -165 -293 -165 -309 0 -3 -9 -25 -19 -49 -49 -108 -122
-368 -147 -521 -3 -21 -7 -46 -9 -55 -3 -17 -14 -101 -22 -161 -4 -33 -8 -433
-17 -1650 -2 -305 -6 -568 -9 -585 -3 -16 -11 -77 -17 -135 -55 -493 -237
-975 -502 -1328 -92 -122 -260 -290 -385 -384 -201 -151 -464 -290 -698 -369
-73 -25 -78 -30 -66 -60 38 -96 181 -497 181 -508 0 -7 10 -9 28 -5 60 15 292
97 420 150 130 52 420 192 452 217 8 7 31 21 50 31 68 36 246 160 345 240 319
258 543 556 734 977 62 138 172 472 195 594 2 11 7 31 10 45 3 14 8 39 11 55
3 17 12 64 19 105 8 41 17 100 21 130 3 30 8 66 10 80 2 14 6 52 9 85 3 33 9
89 12 125 4 36 8 522 10 1080 2 558 5 1029 7 1045 3 17 8 59 11 94 6 55 17
123 41 256 22 116 97 328 157 444 171 324 412 531 746 640 181 59 318 80 603
90 15 1 17 34 17 356 0 323 -2 355 -17 356 -9 1 -46 2 -82 4 -72 3 -189 13
-229 20 -14 2 -54 9 -90 15 -69 12 -231 54 -265 70 -11 5 -54 23 -95 41 -41
17 -82 38 -91 45 -8 8 -19 14 -23 14 -17 0 -156 104 -216 162 -140 135 -228
269 -323 488 -56 131 -111 358 -131 545 -3 28 -9 75 -12 105 -4 30 -8 510 -9
1065 -1 556 -5 1037 -9 1070 -4 33 -8 86 -11 117 -5 66 -16 164 -21 193 -3 11
-7 38 -9 60 -10 71 -45 245 -71 349 -93 366 -237 693 -437 991 -329 490 -882
870 -1615 1111 -150 49 -139 47 -145 37z"/>
<path d="M9179 12956 c-2 -2 -35 -7 -74 -10 -520 -49 -1016 -242 -1440 -561
-148 -112 -251 -208 -420 -390 -52 -56 -144 -177 -211 -278 -111 -167 -110
-164 -173 -293 -151 -305 -232 -578 -276 -934 -14 -105 -16 -547 -17 -2940
l-2 -2525 1382 -3 1382 -2 1 22 c0 13 1 559 2 1215 1 655 5 1194 8 1197 3 3
48 8 99 11 196 11 289 22 495 60 233 43 649 204 833 321 29 19 55 34 58 34 13
0 246 166 324 231 303 253 527 530 705 874 89 173 161 361 211 550 11 41 44
198 49 230 3 23 7 52 10 65 3 14 8 59 11 100 3 41 8 86 10 100 2 14 4 100 4
191 1 186 -11 314 -45 499 -85 456 -300 897 -619 1270 -70 81 -268 271 -362
346 -319 256 -693 441 -1086 538 -162 40 -163 41 -313 63 -95 13 -535 29 -546
19z"/>
</g>
</svg>
