<?xml version="1.0" standalone="no"?>
<!DOCTYPE svg PUBLIC "-//W3C//DTD SVG 20010904//EN"
 "http://www.w3.org/TR/2001/REC-SVG-20010904/DTD/svg10.dtd">
<svg version="1.0" xmlns="http://www.w3.org/2000/svg"
 width="830.000000pt" height="830.000000pt" viewBox="0 0 830.000000 830.000000"
 preserveAspectRatio="xMidYMid meet">
<metadata>
Created by potrace 1.14, written by Peter Selinger 2001-2017
</metadata>
<g transform="translate(0.000000,830.000000) scale(0.100000,-0.100000)"
fill="#000000" stroke="none">
<path d="M1760 7405 c-221 -80 -440 -210 -581 -346 -76 -74 -159 -171 -159
-187 0 -6 -3 -12 -7 -14 -23 -10 -116 -190 -153 -295 -23 -65 -51 -167 -55
-200 -2 -11 -5 -29 -9 -40 -3 -10 -8 -38 -11 -63 -3 -25 -8 -58 -11 -74 -11
-66 -15 -223 -16 -671 -1 -343 -5 -496 -15 -565 -34 -230 -131 -408 -279 -511
-23 -15 -44 -25 -48 -22 -3 4 -6 1 -6 -4 0 -10 -116 -60 -158 -68 -9 -2 -17
-4 -17 -5 0 -1 -16 -3 -35 -5 -19 -3 -46 -7 -59 -9 -13 -3 -51 -6 -83 -7 l-58
-2 2 -171 3 -171 50 -2 c218 -9 382 -75 499 -200 52 -55 56 -61 96 -136 64
-120 97 -256 105 -439 2 -59 5 -111 6 -115 1 -4 1 -12 -1 -18 -2 -13 -2 -288
0 -300 2 -6 2 -14 1 -20 -6 -28 -2 -386 4 -395 3 -5 1 -10 -5 -10 -6 0 -9 -4
-6 -9 3 -5 8 -51 11 -104 5 -100 9 -138 26 -227 6 -30 12 -62 14 -70 9 -58 64
-230 78 -248 5 -6 7 -12 3 -12 -3 0 16 -43 43 -95 132 -251 325 -436 616 -588
68 -36 278 -115 318 -121 5 -1 14 15 21 34 33 86 58 156 60 167 1 7 5 16 9 19
22 22 4 43 -55 65 -301 112 -509 313 -641 619 -31 72 -71 229 -83 325 -3 22
-7 51 -10 65 -3 14 -7 257 -9 540 -3 566 -6 618 -41 766 -29 123 -92 282 -116
292 -5 2 -8 8 -8 14 0 6 -11 26 -25 44 -14 18 -25 36 -25 39 0 4 -33 39 -74
80 -76 75 -176 146 -258 184 -27 12 -48 23 -48 26 0 2 38 23 85 47 185 93 343
268 417 461 25 65 56 175 64 225 3 20 7 44 9 52 13 49 18 229 20 660 1 267 5
508 9 535 30 238 85 426 164 559 15 26 32 55 37 65 44 76 184 219 273 280 68
46 165 95 247 126 49 19 60 27 61 46 0 13 -2 29 -6 34 -7 11 -49 143 -51 160
-2 16 -19 45 -27 45 -4 -1 -50 -16 -102 -35z"/>
<path d="M6425 7428 c-3 -7 -22 -65 -43 -129 l-38 -117 50 -18 c65 -23 191
-85 241 -118 154 -101 281 -244 360 -405 38 -77 100 -253 109 -311 3 -19 7
-44 10 -55 5 -26 14 -88 22 -150 4 -27 8 -270 9 -540 3 -452 8 -635 19 -653 2
-4 7 -28 11 -52 3 -25 13 -70 22 -100 9 -30 18 -64 20 -74 2 -11 8 -25 14 -33
6 -7 9 -13 5 -13 -12 0 82 -169 126 -226 50 -65 127 -140 173 -170 17 -10 32
-21 35 -25 9 -11 143 -79 157 -79 30 0 9 -20 -59 -55 -131 -67 -270 -187 -333
-288 -10 -18 -22 -34 -25 -37 -8 -6 -72 -141 -88 -185 -6 -16 -19 -59 -28 -95
-25 -100 -24 -95 -39 -215 -4 -27 -8 -286 -10 -575 -2 -289 -6 -536 -8 -550
-3 -14 -8 -47 -12 -75 -22 -181 -103 -394 -206 -545 -42 -62 -140 -166 -198
-210 -18 -14 -38 -29 -45 -35 -36 -30 -200 -117 -273 -146 -35 -13 -63 -29
-63 -36 0 -7 9 -36 21 -65 11 -29 28 -73 36 -98 9 -25 19 -55 24 -67 l8 -21
58 18 c98 32 146 51 196 76 27 13 55 24 63 24 8 0 14 3 14 8 0 4 15 13 33 21
67 28 255 162 327 233 119 117 172 187 243 318 31 58 103 236 113 282 2 10 6
28 9 40 3 13 8 36 11 52 2 16 6 32 8 35 2 3 7 31 10 62 4 31 9 67 11 79 11 58
15 223 17 660 1 334 5 501 14 564 15 97 54 232 84 286 10 19 23 45 29 57 6 12
23 37 38 55 136 157 306 233 541 242 l47 2 3 170 2 171 -37 2 c-118 6 -196 18
-268 43 -52 18 -153 70 -174 89 -11 11 -22 19 -25 19 -9 0 -58 52 -93 99 -63
82 -125 230 -138 330 -3 20 -8 47 -11 61 -4 14 -9 243 -10 510 -4 463 -10 715
-19 730 -2 3 -6 28 -10 56 -15 129 -82 348 -138 454 -16 30 -36 69 -45 85 -48
92 -191 256 -297 340 -27 22 -51 43 -53 48 -2 4 -7 7 -12 7 -5 0 -36 18 -68
40 -85 56 -250 135 -365 176 -114 39 -106 38 -112 22z"/>
<path d="M4168 5995 c-2 -1 -28 -5 -58 -8 -86 -9 -231 -44 -310 -74 -8 -3 -20
-7 -26 -8 -31 -7 -209 -102 -238 -127 -11 -10 -23 -18 -28 -18 -9 0 -20 -9
-121 -94 -144 -122 -249 -259 -332 -431 -47 -98 -99 -251 -90 -266 4 -5 2 -9
-2 -9 -5 0 -10 -12 -11 -27 -1 -16 -4 -39 -7 -53 -16 -74 -19 -261 -19 -1420
l-1 -1265 663 -3 c526 -2 662 0 663 10 0 7 0 271 1 586 l0 572 27 1 c113 6
119 6 226 25 101 17 275 73 304 97 8 7 15 11 15 9 5 -17 186 91 281 167 153
123 314 322 365 451 7 19 18 41 24 49 5 7 11 18 13 25 1 6 12 38 24 71 22 61
46 150 53 195 20 125 24 263 11 375 -12 114 -13 117 -36 195 -69 238 -179 423
-352 592 -61 60 -180 158 -192 158 -2 0 -24 14 -49 31 -120 80 -318 152 -516
186 -29 5 -277 12 -282 8z"/>
</g>
</svg>
