<?xml version="1.0" encoding="UTF-8"?>
<svg xmlns="http://www.w3.org/2000/svg" version="1.1" viewBox="0 0 110 135">
  <defs>
    <style>
      .cls-1 {
        fill: #fff;
      }
    </style>
  </defs>
  <!-- Generator: Adobe Illustrator 28.6.0, SVG Export Plug-In . SVG Version: 1.2.0 Build 709)  -->
  <g>
    <g id="Layer_1">
      <path class="cls-1" d="M92.1,30.9h-18.5v-2.6c0-2.1-.8-4.1-2.3-5.6-1.5-1.5-3.5-2.3-5.6-2.3h-21.2c-2.1,0-4.1.8-5.6,2.3-1.5,1.5-2.3,3.5-2.3,5.7v2.6h-18.5c-4.4,0-7.9,3.5-7.9,7.9v15.9c0,2.1.8,4.1,2.3,5.6,1.5,1.5,3.5,2.3,5.6,2.3h7.9v-2.6c0-1.5,1.2-2.6,2.6-2.6s2.6,1.2,2.6,2.6v2.6h47.6v-2.6c0-1.5,1.2-2.6,2.6-2.6s2.7,1.2,2.7,2.6v2.6h7.9,0c2.1,0,4.1-.8,5.6-2.3,1.5-1.5,2.3-3.5,2.3-5.6v-15.9c0-2.1-.8-4.1-2.3-5.6-1.5-1.5-3.5-2.3-5.6-2.3h0ZM68.2,30.9h-26.5v-2.6c0-.7.3-1.4.8-1.9.5-.5,1.2-.8,1.9-.8h21.2c.7,0,1.4.3,1.9.8.5.5.8,1.2.8,1.9v2.6ZM92.1,67.9c2.9,0,5.7-1,7.9-2.7v26.5c0,2.1-.8,4.1-2.3,5.6-1.5,1.5-3.5,2.3-5.6,2.3H17.9c-2.1,0-4.1-.8-5.6-2.3-1.5-1.5-2.3-3.5-2.3-5.6v-26.5c2.3,1.8,5.1,2.7,7.9,2.7h7.9v2.6h0c0,1.5,1.2,2.6,2.7,2.6s2.6-1.2,2.6-2.6v-2.6h47.6v2.6c0,1.5,1.2,2.6,2.6,2.6s2.7-1.2,2.7-2.6v-2.6h7.9Z"/>
    </g>
  </g>
</svg>