<?xml version="1.0" encoding="UTF-8"?>
<svg xmlns="http://www.w3.org/2000/svg" version="1.1" viewBox="0 0 110 135">
  <defs>
    <style>
      .cls-1 {
        fill: #fff;
      }
    </style>
  </defs>
  <!-- Generator: Adobe Illustrator 28.6.0, SVG Export Plug-In . SVG Version: 1.2.0 Build 709)  -->
  <g>
    <g id="Layer_1">
      <path class="cls-1" d="M81.3,51.2v-12.3c-.2-14.7-11.9-26.4-26.4-26.4s-26.2,11.7-26.2,26.2v12.3c-3.6,0-6.3,2.8-6.3,6.3v43.8c0,3.6,2.8,6.3,6.3,6.3h52.6c3.6,0,6.3-2.8,6.3-6.3v-43.6c-.2-3.6-3-6.3-6.4-6.3h0ZM57.6,91h-5.3c-1.8,0-3.1-1.6-2.8-3.3l1.2-7.6c-1.8-1.3-2.8-3.7-2.5-6.2.3-2.8,2.4-5.1,5.1-5.8,4.5-1.2,8.8,2.3,8.8,6.7s-1,4.2-2.6,5.4l1,7.7c.2,1.7-1.1,3.2-2.8,3.2h0ZM72.8,51.2h-35.7v-12.3c0-9.7,7.9-17.9,17.9-17.9s17.9,7.9,17.9,17.9v12.3Z"/>
    </g>
  </g>
</svg>