<?xml version="1.0" encoding="UTF-8"?>
<svg xmlns="http://www.w3.org/2000/svg" version="1.1" viewBox="0 0 415 329">
  <defs>
    <style>
      .cls-1 {
      fill: #a6def1;
      }

      .cls-2 {
      fill: #f4856b;
      }

      .cls-3, .cls-4 {
      isolation: isolate;
      }

      .cls-5 {
      fill: #0e61a6;
      }

      .cls-4 {
      fill: #231f20;
      font-family: Roboto-Light, Roboto;
      font-size: 336.7px;
      font-weight: 300;
      }

      .cls-6 {
      fill: #1f3363;
      }

      .cls-7 {
      fill: #0c183d;
      }
    </style>
  </defs>
  <!-- Generator: Adobe Illustrator 28.6.0, SVG Export Plug-In . SVG Version: 1.2.0 Build 709)  -->
  <g>
    <g id="Layer_1">
      <g id="Layer_1-2">
        <rect class="cls-6" x="146.3" y="141.2" width="66.3" height="98.5" />
        <path class="cls-5" d="M214,203.9c-37.4,0-67.6-29.5-67.6-65.9s30.3-65.9,67.6-65.9" />
        <path class="cls-7" d="M212.6,203.9c37.4,0,67.6-29.5,67.6-65.9s-30.3-65.9-67.6-65.9" />
        <path class="cls-1" d="M201.9,137.9h10.7v124.6h-66.3v-69c0-30.7,24.9-55.6,55.6-55.6h0Z" />
        <path class="cls-2" d="M280.2,137.9c0-36.4-30.3-65.9-67.6-65.9v65.9h67.6" />
      </g>
      <g id="Layer_2">
        <g class="cls-3">
          <g class="cls-3">
            <text class="cls-4" transform="translate(-11.2 262.5)">
              <tspan x="0" y="0">{</tspan>
            </text>
          </g>
        </g>
        <g class="cls-3">
          <g class="cls-3">
            <text class="cls-4" transform="translate(426.2 262.5) rotate(-180) scale(1 -1)">
              <tspan x="0" y="0">{</tspan>
            </text>
          </g>
        </g>
      </g>
    </g>
  </g>
</svg>